<?xml version="1.0" standalone="no"?><!DOCTYPE svg PUBLIC "-//W3C//DTD SVG 1.1//EN" "http://www.w3.org/Graphics/SVG/1.1/DTD/svg11.dtd"><svg t="1567767432980" class="icon" viewBox="0 0 1025 1024" version="1.1" xmlns="http://www.w3.org/2000/svg" p-id="1530" xmlns:xlink="http://www.w3.org/1999/xlink" width="200.1953125" height="200"><defs><style type="text/css"></style></defs><path d="M511.999723 331.913794m-117.748854 0a117.748854 117.748854 0 1 0 235.497708 0 117.748854 117.748854 0 1 0-235.497708 0Z" p-id="1531" fill="#1296db"></path><path d="M511.999723 0.000554A511.999723 511.999723 0 1 0 1025.10767 512.000277 512.276779 512.276779 0 0 0 511.999723 0.000554zM792.380524 779.636496a24.935051 24.935051 0 0 1-24.935052-24.935052 255.445749 255.445749 0 0 0-510.614442 0 24.935051 24.935051 0 0 1-49.870103 0 304.76174 304.76174 0 0 1 205.29859-288.138372 167.896013 167.896013 0 1 1 199.480412 0 304.76174 304.76174 0 0 1 205.575646 288.138372 24.935051 24.935051 0 0 1-24.935051 24.935052z" p-id="1532" fill="#1296db"></path></svg>