<?xml version="1.0" standalone="no"?><!DOCTYPE svg PUBLIC "-//W3C//DTD SVG 1.1//EN" "http://www.w3.org/Graphics/SVG/1.1/DTD/svg11.dtd"><svg t="1568472432735" class="icon" viewBox="0 0 1024 1024" version="1.1" xmlns="http://www.w3.org/2000/svg" p-id="8861" xmlns:xlink="http://www.w3.org/1999/xlink" width="200" height="200"><defs><style type="text/css"></style></defs><path d="M312.46 881.524l10.821 5.33A423.727 423.727 0 0 0 512 930.909c230.982 0 418.91-182.714 418.91-407.273 0-224.558-187.928-407.272-418.91-407.272S93.09 299.078 93.09 523.636c0 86.552 27.998 169.519 80.99 239.919l11.31 15.01-50.06 140.242 177.13-37.283zM512 1000.727c-72.564 0-142.662-15.453-208.547-45.987L129.35 991.418a58.182 58.182 0 0 1-66.746-76.544l44.544-124.788C52.2 710.912 23.273 619.194 23.273 523.636c0-263.075 219.252-477.09 488.727-477.09s488.727 214.015 488.727 477.09S781.475 1000.727 512 1000.727z m-186.182-477.09a46.545 46.545 0 1 1-93.09 0 46.545 46.545 0 0 1 93.09 0m232.727 0a46.545 46.545 0 1 1-93.09 0 46.545 46.545 0 0 1 93.09 0m232.728 0a46.545 46.545 0 1 1-93.091 0 46.545 46.545 0 0 1 93.09 0" fill="#8a8a8a" p-id="8862"></path></svg>