<?xml version="1.0" standalone="no"?><!DOCTYPE svg PUBLIC "-//W3C//DTD SVG 1.1//EN" "http://www.w3.org/Graphics/SVG/1.1/DTD/svg11.dtd"><svg t="1568488100670" class="icon" viewBox="0 0 1024 1024" version="1.1" xmlns="http://www.w3.org/2000/svg" p-id="1763" xmlns:xlink="http://www.w3.org/1999/xlink" width="200" height="200"><defs><style type="text/css"></style></defs><path d="M757.76 573.44c-46.08 0-92.16 15.36-128 51.2l-92.16-133.12 261.12-373.76c5.12-10.24 5.12-25.6-10.24-35.84-10.24-10.24-25.6-5.12-35.84 5.12L512 440.32 261.12 87.04c-10.24-10.24-25.6-15.36-35.84-5.12-15.36 10.24-15.36 25.6-10.24 35.84l261.12 368.64L389.12 614.4c-76.8-66.56-184.32-61.44-256 10.24s-71.68 179.2-10.24 256c66.56 76.8 174.08 87.04 256 25.6 76.8-56.32 97.28-168.96 46.08-250.88l87.04-122.88 87.04 128c-40.96 71.68-30.72 163.84 30.72 225.28 61.44 61.44 153.6 71.68 225.28 30.72 71.68-40.96 107.52-128 87.04-209.92-25.6-76.8-97.28-133.12-184.32-133.12z m-491.52 317.44c-51.2 0-102.4-30.72-122.88-81.92-20.48-51.2-10.24-107.52 30.72-143.36 35.84-35.84 97.28-51.2 143.36-30.72 51.2 20.48 81.92 71.68 81.92 122.88 0 71.68-61.44 133.12-133.12 133.12z m491.52 0c-51.2 0-102.4-30.72-122.88-81.92-20.48-51.2-10.24-107.52 30.72-143.36 35.84-35.84 97.28-51.2 143.36-30.72 51.2 20.48 81.92 71.68 81.92 122.88 0 71.68-56.32 133.12-133.12 133.12z" fill="#8a8a8a" p-id="1764"></path></svg>