<?xml version="1.0" standalone="no"?><!DOCTYPE svg PUBLIC "-//W3C//DTD SVG 1.1//EN" "http://www.w3.org/Graphics/SVG/1.1/DTD/svg11.dtd"><svg t="1568469056989" class="icon" viewBox="0 0 1024 1024" version="1.1" xmlns="http://www.w3.org/2000/svg" p-id="2005" xmlns:xlink="http://www.w3.org/1999/xlink" width="200" height="200"><defs><style type="text/css"></style></defs><path d="M742.87988281 499.61972656c0 42.41425781 34.38632812 76.80498047 76.79970703 76.80498047 42.40898437 0 76.80058594-34.39160156 76.80058594-76.80498047s-34.39160156-76.79970703-76.80058594-76.79970703c-42.41337891 0-76.79882813 34.38544922-76.79882812 76.79970703z m-153.6046875 0c0-42.41337891-34.38632812-76.79970703-76.7953125-76.79970703-42.41953125 0-76.80498047 34.38632812-76.80498047 76.79970703s34.38632812 76.80498047 76.80498047 76.80498047c42.40898437 0 76.7953125-34.39160156 76.7953125-76.80498047z m-307.1953125 0c0-42.41337891-34.34941406-76.79970703-76.80498047-76.79970703-42.40898437 0-76.7953125 34.38632812-76.7953125 76.79970703s34.38632812 76.80498047 76.7953125 76.80498047c42.45556641 0 76.80498047-34.39160156 76.80498047-76.80498047z m0 0" p-id="2006" fill="#cfcfcf"></path></svg>