<?xml version="1.0" standalone="no"?><!DOCTYPE svg PUBLIC "-//W3C//DTD SVG 1.1//EN" "http://www.w3.org/Graphics/SVG/1.1/DTD/svg11.dtd"><svg t="1568472501319" class="icon" viewBox="0 0 1024 1024" version="1.1" xmlns="http://www.w3.org/2000/svg" p-id="9432" xmlns:xlink="http://www.w3.org/1999/xlink" width="200" height="200"><defs><style type="text/css"></style></defs><path d="M672.816 387.312V253.92c0-103.424-84.16-187.584-187.584-187.584S297.664 150.48 297.664 253.92v301.76c0 103.424 84.144 187.568 187.568 187.568s187.584-84.144 187.584-187.568v-155.824c0.496-1.712 0.976-3.824 0.976-6.288a22.912 22.912 0 0 0-0.976-6.256z m-103.792-60.544h49.84v39.344h-49.84c-15.12 0-26.976 11.84-26.976 26.96 0 15.12 11.84 26.976 26.976 26.976h49.84v39.344h-49.84c-15.12 0-26.976 11.84-26.976 26.96s11.84 26.96 26.976 26.96h49.84v42.368c0 73.68-59.952 133.648-133.648 133.648-73.68 0-133.648-59.952-133.648-133.648v-42.368h56.832c15.12 0 26.976-11.84 26.976-26.96s-11.84-26.96-26.976-26.96h-56.832v-39.344h59.328c15.12 0 26.976-11.84 26.976-26.976 0-15.12-11.84-26.96-26.976-26.96h-59.328v-39.344h56.832c15.12 0 26.976-11.84 26.976-26.976 0-15.12-11.84-26.96-26.976-26.96h-56.832V253.92c0-73.696 59.952-133.648 133.648-133.648s133.648 59.952 133.648 133.648v18.928h-49.84c-15.12 0-26.976 11.84-26.976 26.96a26.688 26.688 0 0 0 26.976 26.96z" p-id="9433" fill="#8a8a8a"></path><path d="M748 566.944c0-15.568-12.336-27.744-28.096-27.744-15.728 0-28.064 12.192-28.064 27.744 0 111.152-92.464 201.584-206.112 201.584s-206.096-90.416-206.096-201.584c0-15.568-12.336-27.744-28.08-27.744-15.744 0-28.08 12.192-28.08 27.744 0 131.328 101.984 241.52 234.192 255.568V899.2h-61.952c-15.744 0-28.08 12.192-28.08 27.728 0 15.568 12.336 27.744 28.08 27.744h180.048c15.744 0 28.096-12.192 28.096-27.744S591.52 899.2 575.76 899.2h-61.952v-76.688c132.208-14.064 234.192-124.24 234.192-255.568z" p-id="9434" fill="#8a8a8a"></path></svg>