<?xml version="1.0" standalone="no"?><!DOCTYPE svg PUBLIC "-//W3C//DTD SVG 1.1//EN" "http://www.w3.org/Graphics/SVG/1.1/DTD/svg11.dtd"><svg t="1568472547201" class="icon" viewBox="0 0 1024 1024" version="1.1" xmlns="http://www.w3.org/2000/svg" p-id="9886" xmlns:xlink="http://www.w3.org/1999/xlink" width="200" height="200"><defs><style type="text/css"></style></defs><path d="M992.834783 262.678261c-17.808696-8.904348-35.617391-8.904348-48.973913 0l-222.608696 129.113043V262.678261c0-44.521739-35.617391-80.13913-80.139131-80.139131H84.591304c-44.521739 0-80.13913 35.617391-80.13913 80.139131v498.643478c0 44.521739 35.617391 80.13913 80.13913 80.139131h552.069566c44.521739 0 80.13913-35.617391 80.13913-80.139131v-155.826087l222.608696 129.113044c8.904348 4.452174 17.808696 8.904348 26.713043 8.904347s17.808696-4.452174 26.713044-8.904347c17.808696-8.904348 26.713043-26.713043 26.713043-44.521739V307.2c-4.452174-17.808696-13.356522-35.617391-26.713043-44.521739zM667.826087 761.321739c0 17.808696-13.356522 31.165217-31.165217 31.165218H84.591304c-17.808696 0-31.165217-13.356522-31.165217-31.165218V262.678261c0-17.808696 13.356522-31.165217 31.165217-31.165218h552.069566c17.808696 0 31.165217 13.356522 31.165217 31.165218v498.643478z m298.295652-71.234782l-244.869565-142.469566v-97.947826l249.321739-142.469565-4.452174 382.886957z" fill="#707070" p-id="9887"></path></svg>