<?xml version="1.0" standalone="no"?><!DOCTYPE svg PUBLIC "-//W3C//DTD SVG 1.1//EN" "http://www.w3.org/Graphics/SVG/1.1/DTD/svg11.dtd"><svg t="1571147698629" class="icon" viewBox="0 0 1024 1024" version="1.1" xmlns="http://www.w3.org/2000/svg" p-id="2724" xmlns:xlink="http://www.w3.org/1999/xlink" width="200" height="200"><defs><style type="text/css"></style></defs><path d="M512.008091 0C229.23127 0 0 229.23127 0 511.991909s229.23127 512.008091 512.008091 512.008091 511.991909-229.23127 511.991909-512.008091S794.76873 0 512.008091 0z m198.000411 298.505523a45.001564 45.001564 0 0 1 45.001564 45.001564 45.001564 45.001564 0 0 1-45.001564 45.001565A45.001564 45.001564 0 0 1 665.071664 343.507087a45.001564 45.001564 0 0 1 44.936838-45.001564z m-396.000822 0a45.001564 45.001564 0 0 1 44.985383 45.001564 45.001564 45.001564 0 0 1-45.066292 44.985383 45.001564 45.001564 0 0 1-44.936837-44.985383A45.001564 45.001564 0 0 1 313.926771 298.505523z m198.000411 490.081762a283.003366 283.003366 0 0 1-283.003366-283.003366h40.001391A243.001975 243.001975 0 0 0 512.008091 748.569713a243.001975 243.001975 0 0 0 242.985793-242.985794h40.001391a282.987184 282.987184 0 0 1-282.987184 283.003366z" fill="#edb031" p-id="2725"></path></svg>